:SAMPLES-PER-SECOND 30
:FULLY-SPECIFIED
:DEGREES
2251
root  8.29752 40.4633 -2.30918 30.9849 84.4119 31.5195
RightUpLeg  -11.233 -16.0236 -6.32327
RightLeg  13.7855 -8.21112 0.654647
RightFoot  -0.109135 0.197234 -2.01189
RightToes  0.000481921 0.542163 -0.142578
Spine  22.2541 -1.20966 0.928568
Spine1  1.43843 -1.16809 0.223706
HEad  -6.00279 0.312423 1.34612
LeftShoulder1  4.33152 -13.0049 -19.7439
LeftArm  -3.32059 -18.7748 -41.3407
LeftForeArm  174.336 -60.5096 -162.878
LeftHand  -0.25398 0.0180481 5.50724
RightShoulder  2.35543 7.30587 14.997
RightArm  3.10407 15.086 49.5705
RightForeArm  144.653 60.2095 160.368
RightHand  -0.755092 -0.421391 -17.5626
LeftUpLeg  -6.21201 8.84545 1.2888
LeftLeg  7.81831 20.8021 -2.79156
LeftFoot  -0.225433 0.0499109 -0.490085
LeftToes  1.06245e-005 4.65868e-005 -8.65517e-006
2252
root  8.23225 40.417 -2.33585 34.7026 84.4892 35.1823
RightUpLeg  -11.9547 -17.2217 -6.26142
RightLeg  14.7484 -7.1816 0.160417
RightFoot  -0.462775 0.181015 -1.93292
RightToes  0.000481921 0.542163 -0.142578
Spine  22.5799 -1.18202 0.999796
Spine1  1.74864 -1.12867 0.256064
HEad  -6.40089 0.170347 1.13199
LeftShoulder1  5.1768 -13.5564 -24.0917
LeftArm  -2.83892 -18.7496 -38.4442
LeftForeArm  174.234 -60.9971 -162.539
LeftHand  -0.25398 0.0180481 5.50724
RightShoulder  2.73555 7.97973 17.2128
RightArm  3.35344 13.8451 47.6822
RightForeArm  144.143 61.0319 159.697
RightHand  -0.832577 0.0116562 -17.8489
LeftUpLeg  -6.64187 9.26131 0.946809
LeftLeg  8.31023 20.1904 -2.72042
LeftFoot  -0.399257 0.050562 -0.482576
LeftToes  1.06245e-005 4.65868e-005 -8.65517e-006
2253
root  8.16964 40.3771 -2.36188 38.8618 84.546 39.4562
RightUpLeg  -12.4212 -18.2145 -6.34218
RightLeg  15.6089 -6.38354 -0.265898
RightFoot  -0.78341 0.172307 -1.92133
RightToes  0.000481921 0.542163 -0.142578
Spine  22.888 -1.15445 1.18209
Spine1  2.48659 -1.06114 0.250737
HEad  -6.77642 -0.0237834 0.954541
LeftShoulder1  6.38776 -14.402 -29.5965
LeftArm  -2.19537 -18.6039 -34.6747
LeftForeArm  173.357 -61.7345 -161.939
LeftHand  -0.25398 0.0180481 5.50724
RightShoulder  3.23092 8.70896 20.0604
RightArm  3.72233 12.5537 45.2556
RightForeArm  143.359 62.2447 158.636
RightHand  -1.00358 0.9202 -18.4859
LeftUpLeg  -6.82063 9.41994 0.550449
LeftLeg  8.65604 19.8046 -2.60283
LeftFoot  -0.509654 0.0539303 -0.528997
LeftToes  1.06245e-005 4.65868e-005 -8.65517e-006
2254
root  8.10556 40.3439 -2.38564 42.9728 84.6851 43.7188
RightUpLeg  -12.6855 -18.9057 -6.46289
RightLeg  16.2399 -5.9821 -0.568801
RightFoot  -1.01079 0.167915 -1.93225
RightToes  0.000481921 0.542163 -0.142578
Spine  23.2169 -1.20054 1.64335
Spine1  3.32502 -0.97845 0.0703671
HEad  -7.15264 -0.153222 0.850893
LeftShoulder1  7.90821 -15.4654 -35.5946
LeftArm  -1.29712 -17.9619 -30.7729
LeftForeArm  172.359 -62.8206 -161.032
LeftHand  -0.25398 0.0180481 5.50724
RightShoulder  3.8599 9.36976 23.8051
RightArm  4.33343 11.4238 42.0983
RightForeArm  142.295 63.8597 157.086
RightHand  -1.23227 2.06702 -19.2617
LeftUpLeg  -6.98346 9.67048 0.177189
LeftLeg  9.02117 19.2214 -2.38692
LeftFoot  -0.585294 0.0562895 -0.567805
LeftToes  1.06245e-005 4.65868e-005 -8.65517e-006
2255
root  8.04549 40.318 -2.40349 46.8943 84.8814 47.7565
RightUpLeg  -12.8304 -19.4216 -6.57055
RightLeg  16.6451 -5.80898 -0.744481
RightFoot  -1.13956 0.162235 -1.90314
RightToes  0.000481921 0.542163 -0.142578
Spine  23.6371 -1.27751 2.21216
Spine1  4.00272 -0.914191 -0.0471061
HEad  -7.42502 -0.278813 0.703193
LeftShoulder1  9.63532 -16.5096 -41.7701
LeftArm  -0.140435 -16.5527 -27.207
LeftForeArm  171.651 -64.3881 -159.679
LeftHand  -0.25398 0.0180481 5.50724
RightShoulder  4.72802 10.198 28.4935
RightArm  4.9169 10.166 37.8214
RightForeArm  141.449 65.4929 155.356
RightHand  -1.51037 3.38469 -20.097
LeftUpLeg  -7.18269 10.0662 -0.126367
LeftLeg  9.37459 18.4434 -2.16626
LeftFoot  -0.620388 0.0525619 -0.516452
LeftToes  1.06245e-005 4.65868e-005 -8.65517e-006
2256
root  7.99589 40.2956 -2.41323 50.5525 85.0044 51.506
RightUpLeg  -12.966 -19.8771 -6.68586
RightLeg  16.9963 -5.64275 -0.879588
RightFoot  -1.23084 0.152994 -1.82162
RightToes  0.000481921 0.542163 -0.142578
Spine  24.0742 -1.32993 2.67588
Spine1  4.69931 -0.879211 0.0118921
HEad  -7.7265 -0.604789 0.454819
LeftShoulder1  11.2212 -17.2525 -47.1832
LeftArm  1.21141 -14.4482 -24.8365
LeftForeArm  170.707 -66.7688 -157.318
LeftHand  -0.25398 0.0180481 5.50724
RightShoulder  5.8244 11.2725 33.4636
RightArm  5.26989 8.48482 33.0573
RightForeArm  141.035 66.9585 153.643
RightHand  -1.8202 4.80343 -20.8716
LeftUpLeg  -7.34754 10.4128 -0.400643
LeftLeg  9.6391 17.7873 -2.00213
LeftFoot  -0.633065 0.0467628 -0.433704
LeftToes  1.06245e-005 4.65868e-005 -8.65517e-006
2257
root  7.94914 40.2661 -2.4188 53.136 84.9542 54.1064
RightUpLeg  -13.307 -20.3017 -6.75576
RightLeg  17.4806 -5.34007 -1.06149
RightFoot  -1.34549 0.145162 -1.75905
RightToes  0.000481921 0.542163 -0.142578
Spine  24.4228 -1.36121 3.11073
Spine1  5.56993 -0.803199 -0.0218469
HEad  -8.3805 -1.21871 0.152632
LeftShoulder1  12.2197 -17.6403 -50.4583
LeftArm  2.71212 -11.988 -24.5974
LeftForeArm  167.715 -70.3072 -152.616
LeftHand  -0.25398 0.0180481 5.50724
RightShoulder  6.85044 12.2558 37.4502
RightArm  5.54633 6.44139 29.5062
RightForeArm  140.003 68.7726 151.134
RightHand  -2.11046 6.16857 -21.3586
LeftUpLeg  -7.59522 10.8193 -0.721764
LeftLeg  9.95537 17.2528 -1.81187
LeftFoot  -0.703541 0.0458822 -0.42456
LeftToes  1.06245e-005 4.65868e-005 -8.65517e-006
